<svg xmlns="http://www.w3.org/2000/svg" viewBox="0 0 850 1100" style="background:#b7e6b1"><rect width="850" height="1100" fill="#b7e6b1"/><g class="ambient-negative-space" style="color:#1f6f3d; stroke:#1f6f3d; fill:#1f6f3d"><g transform="rotate(14 108.2 102.6)" opacity="0.228"><circle cx="108.19999999999996" cy="85.04399999999994" r="6.0192000000000005" fill="none" stroke="currentColor" stroke-width="2.904"/>
                      <line x1="108.19999999999996" y1="91.06319999999994" x2="108.19999999999996" y2="117.64799999999994" stroke="currentColor" stroke-width="2.904"/><circle cx="129.66724768581417" cy="97.17489764675337" r="6.0192000000000005" fill="none" stroke="currentColor" stroke-width="2.904"/>
                      <line x1="129.66724768581417" y1="103.19409764675336" x2="108.19999999999996" y2="117.64799999999994" stroke="currentColor" stroke-width="2.904"/><circle cx="121.46748871474567" cy="116.80310235324652" r="6.0192000000000005" fill="none" stroke="currentColor" stroke-width="2.904"/>
                      <line x1="121.46748871474567" y1="122.82230235324651" x2="108.19999999999996" y2="117.64799999999994" stroke="currentColor" stroke-width="2.904"/><circle cx="94.93251128525426" cy="116.80310235324652" r="6.0192000000000005" fill="none" stroke="currentColor" stroke-width="2.904"/>
                      <line x1="94.93251128525426" y1="122.82230235324651" x2="108.19999999999996" y2="117.64799999999994" stroke="currentColor" stroke-width="2.904"/><circle cx="86.73275231418575" cy="97.17489764675337" r="6.0192000000000005" fill="none" stroke="currentColor" stroke-width="2.904"/>
                      <line x1="86.73275231418575" y1="103.19409764675336" x2="108.19999999999996" y2="117.64799999999994" stroke="currentColor" stroke-width="2.904"/><circle cx="108.19999999999996" cy="131.69279999999995" r="9.0288" fill="none" stroke="currentColor" stroke-width="2.904"/></g><g transform="rotate(5 741.8 947.4)" opacity="0.173"><circle cx="741.8" cy="947.4000000000001" r="47.519999999999996" fill="none" stroke="currentColor" stroke-width="3.696"/>
                <polygon points="741.8,938.8464000000001 750.3535999999999,946.4496000000001 746.5519999999999,957.8544 737.048,957.8544 733.2464,946.4496000000001" fill="none" stroke="currentColor" stroke-width="3.696"/>
                <path d="M741.8,899.8800000000001 L741.8,938.8464000000001 M786.944,945.0240000000001 L750.3535999999999,946.4496000000001 M769.3616,986.3664000000001 L746.5519999999999,957.8544 M714.2384,986.3664000000001 L737.048,957.8544 M696.656,945.0240000000001 L733.2464,946.4496000000001" stroke="currentColor" stroke-width="3.696"/></g></g><g class="ambient-margin-hero" style="color:#1f6f3d; stroke:#1f6f3d; fill:#1f6f3d"><g transform="rotate(6 43.607 591.967)" opacity="0.269"><circle cx="43.60727276145847" cy="584.4859827075845" r="2.5650911999999986" fill="none" stroke="currentColor" stroke-width="1.238"/>
                      <line x1="43.60727276145847" y1="587.0510739075845" x2="43.60727276145847" y2="598.3802267075845" stroke="currentColor" stroke-width="1.238"/><circle cx="52.75557288890104" cy="589.6555831198964" r="2.5650911999999986" fill="none" stroke="currentColor" stroke-width="1.238"/>
                      <line x1="52.75557288890104" y1="592.2206743198964" x2="43.60727276145847" y2="598.3802267075845" stroke="currentColor" stroke-width="1.238"/><circle cx="49.26123317950297" cy="598.0201722952726" r="2.5650911999999986" fill="none" stroke="currentColor" stroke-width="1.238"/>
                      <line x1="49.26123317950297" y1="600.5852634952726" x2="43.60727276145847" y2="598.3802267075845" stroke="currentColor" stroke-width="1.238"/><circle cx="37.95331234341396" cy="598.0201722952726" r="2.5650911999999986" fill="none" stroke="currentColor" stroke-width="1.238"/>
                      <line x1="37.95331234341396" y1="600.5852634952726" x2="43.60727276145847" y2="598.3802267075845" stroke="currentColor" stroke-width="1.238"/><circle cx="34.45897263401589" cy="589.6555831198964" r="2.5650911999999986" fill="none" stroke="currentColor" stroke-width="1.238"/>
                      <line x1="34.45897263401589" y1="592.2206743198964" x2="43.60727276145847" y2="598.3802267075845" stroke="currentColor" stroke-width="1.238"/><circle cx="43.60727276145847" cy="604.3654395075845" r="3.847636799999998" fill="none" stroke="currentColor" stroke-width="1.238"/></g><g opacity="0.269"><g transform="rotate(-7,807.5310354528056,601.649524899142)">
            <path d="M791.3304594528056,602.774564899142 Q799.6557554528056,593.774244899142 811.5811794528056,598.9494288991419 Q821.4815314528055,601.199508899142 823.7316114528055,607.2747248991419 H794.4805714528055 Q790.6554354528056,606.5997008991419 791.3304594528056,602.774564899142" fill="none" stroke="currentColor" stroke-width="1.238"/>
            <line x1="801.9058354528056" y1="598.9494288991419" x2="806.4059954528055" y2="603.899604899142" stroke="currentColor" stroke-width="1.238"/>
            <line x1="807.9810514528056" y1="599.849460899142" x2="811.5811794528056" y2="603.899604899142" stroke="currentColor" stroke-width="1.238"/>
            <path d="M799.6557554528056,607.2747248991419 v3.3751199999999955 M810.9061554528056,607.2747248991419 v3.3751199999999955 M818.3314194528056,607.2747248991419 v3.3751199999999955" stroke="currentColor" stroke-width="1.238"/>
        </g></g></g><g class="ambient-margin-pattern" style="color:#1f6f3d; stroke:#1f6f3d; fill:#1f6f3d"><g transform="rotate(9 50.603 208.857)" opacity="0.216"><g transform="rotate(11,50.6029230218482,208.85732010154908)">
            <path d="M41.9099310218482,209.46100010154908 Q46.3771630218482,204.63156010154907 52.7761710218482,207.40848810154907 Q58.088555021848194,208.6158481015491 59.295915021848195,211.87572010154906 H43.6002350218482 Q41.5477230218482,211.51351210154908 41.9099310218482,209.46100010154908" fill="none" stroke="currentColor" stroke-width="0.815"/>
            <line x1="47.5845230218482" y1="207.40848810154907" x2="49.9992430218482" y2="210.06468010154907" stroke="currentColor" stroke-width="0.815"/>
            <line x1="50.8443950218482" y1="207.89143210154907" x2="52.7761710218482" y2="210.06468010154907" stroke="currentColor" stroke-width="0.815"/>
            <path d="M46.3771630218482,211.87572010154906 v1.8110399999999993 M52.4139630218482,211.87572010154906 v1.8110399999999993 M56.398251021848196,211.87572010154906 v1.8110399999999993" stroke="currentColor" stroke-width="0.815"/>
        </g></g><g transform="rotate(-18 45.26 409.216)" opacity="0.216"><circle cx="45.2603998567934" cy="409.21599437254184" r="10.866239999999994" fill="none" stroke="currentColor" stroke-width="0.815"/>
                <polygon points="45.2603998567934,407.26007117254187 47.2163230567934,408.99866957254187 46.3470238567934,411.6065671725418 44.1737758567934,411.6065671725418 43.3044766567934,408.99866957254187" fill="none" stroke="currentColor" stroke-width="0.815"/>
                <path d="M45.2603998567934,398.34975437254184 L45.2603998567934,407.26007117254187 M55.58332785679339,408.67268237254183 L47.2163230567934,408.99866957254187 M51.562819056793394,418.1263111725418 L46.3470238567934,411.6065671725418 M38.9579806567934,418.1263111725418 L44.1737758567934,411.6065671725418 M34.93747185679341,408.67268237254183 L43.3044766567934,408.99866957254187" stroke="currentColor" stroke-width="0.815"/></g><g transform="rotate(-12 39.031 463.441)" opacity="0.216"><path d="M39.03094431180831,463.4408030225085 C34.92592031180831,459.84890702250846 31.641901111808316,462.4145470225085 34.104915511808315,466.3143198225085 C36.46530431180831,464.2618078225085 37.79943711180831,463.4408030225085 39.03094431180831,463.4408030225085" fill="none" stroke="currentColor" stroke-width="0.815"/>
                <path d="M39.03094431180831,463.4408030225085 C43.13596831180831,459.84890702250846 46.41998751180831,462.4145470225085 43.95697311180831,466.3143198225085 C41.596584311808314,464.2618078225085 40.262451511808315,463.4408030225085 39.03094431180831,463.4408030225085" fill="none" stroke="currentColor" stroke-width="0.815"/>
                <circle cx="39.03094431180831" cy="463.4408030225085" r="1.2315071999999996" fill="currentColor"/></g><g transform="rotate(4 41.921 646.505)" opacity="0.216"><rect x="33.68044463682092" y="642.0677360285125" width="16.480463999999994" height="9.507959999999995" fill="none" stroke="currentColor" stroke-width="0.815"/>
                <line x1="38.75135663682092" y1="642.0677360285125" x2="38.75135663682092" y2="651.5756960285125" stroke="currentColor" stroke-width="0.815"/>
                <line x1="45.08999663682092" y1="642.0677360285125" x2="45.08999663682092" y2="651.5756960285125" stroke="currentColor" stroke-width="0.815"/>
                <line x1="33.68044463682092" y1="646.5047840285125" x2="50.16090863682092" y2="646.5047840285125" stroke="currentColor" stroke-width="0.815"/>
                <circle cx="41.92067663682092" cy="654.3646976285125" r="1.901591999999999" fill="none" stroke="currentColor" stroke-width="0.815"/></g><g transform="rotate(19 43.193 715.307)" opacity="0.216"><g transform="rotate(15,43.19325103797315,715.3068292872928)">
            <path d="M34.50025903797315,715.9105092872928 Q38.96749103797315,711.0810692872927 45.36649903797315,713.8579972872927 Q50.678883037973144,715.0653572872927 51.886243037973145,718.3252292872928 H36.19056303797315 Q34.138051037973156,717.9630212872928 34.50025903797315,715.9105092872928" fill="none" stroke="currentColor" stroke-width="0.815"/>
            <line x1="40.17485103797315" y1="713.8579972872927" x2="42.58957103797315" y2="716.5141892872928" stroke="currentColor" stroke-width="0.815"/>
            <line x1="43.43472303797315" y1="714.3409412872928" x2="45.36649903797315" y2="716.5141892872928" stroke="currentColor" stroke-width="0.815"/>
            <path d="M38.96749103797315,718.3252292872928 v1.8110399999999993 M45.00429103797315,718.3252292872928 v1.8110399999999993 M48.988579037973146,718.3252292872928 v1.8110399999999993" stroke="currentColor" stroke-width="0.815"/>
        </g></g><g transform="rotate(-7 50.676 766.042)" opacity="0.216"><line x1="45.24299084270038" y1="772.682322623436" x2="45.24299084270038" y2="759.401362623436" stroke="currentColor" stroke-width="0.815"/>
                <path d="M45.24299084270038,759.401362623436 Q50.676110842700375,756.986642623436 56.10923084270037,759.763570623436 V764.834482623436 Q50.676110842700375,762.419762623436 45.24299084270038,764.5930106234359" fill="none" stroke="currentColor" stroke-width="0.815"/>
                <path d="M49.710222842700375,760.2465146234359 L51.641998842700374,763.144178623436 M51.641998842700374,760.2465146234359 L49.710222842700375,763.144178623436" stroke="currentColor" stroke-width="0.815"/></g><g transform="rotate(-4 49.995 831.405)" opacity="0.216"><g transform="rotate(-13,49.995138219027666,831.404909750344)">
            <path d="M41.30214621902767,832.0085897503441 Q45.769378219027665,827.179149750344 52.16838621902767,829.956077750344 Q57.48077021902766,831.163437750344 58.68813021902766,834.4233097503441 H42.99245021902767 Q40.93993821902767,834.061101750344 41.30214621902767,832.0085897503441" fill="none" stroke="currentColor" stroke-width="0.815"/>
            <line x1="46.976738219027666" y1="829.956077750344" x2="49.39145821902767" y2="832.612269750344" stroke="currentColor" stroke-width="0.815"/>
            <line x1="50.23661021902767" y1="830.4390217503441" x2="52.16838621902767" y2="832.612269750344" stroke="currentColor" stroke-width="0.815"/>
            <path d="M45.769378219027665,834.4233097503441 v1.8110399999999993 M51.806178219027665,834.4233097503441 v1.8110399999999993 M55.790466219027664,834.4233097503441 v1.8110399999999993" stroke="currentColor" stroke-width="0.815"/>
        </g></g><g transform="rotate(15 799.698 159.349)" opacity="0.216"><circle cx="798.6412673923326" cy="159.3488555954577" r="4.437047999999994" fill="none" stroke="currentColor" stroke-width="0.815"/>
                <circle cx="798.6412673923326" cy="159.3488555954577" r="1.2677279999999982" fill="none" stroke="currentColor" stroke-width="0.815"/>
                <path d="M801.5992993923326,157.23597559545772 H807.9379393923325 L805.8250593923325,160.19400759545772 H802.3388073923326" fill="none" stroke="currentColor" stroke-width="0.815"/>
                <path d="M794.6267953923325,157.02468759545772 Q792.0913393923325,154.9118075954577 794.2042193923326,153.2215035954577" fill="none" stroke="currentColor" stroke-width="0.815"/></g><g transform="rotate(-1 804.748 218.857)" opacity="0.216"><g transform="rotate(-5,804.7478107031473,218.857140849651)">
            <path d="M796.0548187031472,219.460820849651 Q800.5220507031472,214.631380849651 806.9210587031472,217.40830884965098 Q812.2334427031473,218.615668849651 813.4408027031473,221.87554084965097 H797.7451227031472 Q795.6926107031472,221.513332849651 796.0548187031472,219.460820849651" fill="none" stroke="currentColor" stroke-width="0.815"/>
            <line x1="801.7294107031472" y1="217.40830884965098" x2="804.1441307031472" y2="220.06450084965098" stroke="currentColor" stroke-width="0.815"/>
            <line x1="804.9892827031473" y1="217.89125284965098" x2="806.9210587031472" y2="220.06450084965098" stroke="currentColor" stroke-width="0.815"/>
            <path d="M800.5220507031472,221.87554084965097 v1.8110399999999975 M806.5588507031473,221.87554084965097 v1.8110399999999975 M810.5431387031473,221.87554084965097 v1.8110399999999975" stroke="currentColor" stroke-width="0.815"/>
        </g></g><g transform="rotate(-13 811.204 269.202)" opacity="0.216"><circle cx="810.1475194731532" cy="269.20193634812466" r="4.437047999999994" fill="none" stroke="currentColor" stroke-width="0.815"/>
                <circle cx="810.1475194731532" cy="269.20193634812466" r="1.2677279999999982" fill="none" stroke="currentColor" stroke-width="0.815"/>
                <path d="M813.1055514731532,267.08905634812464 H819.4441914731532 L817.3313114731532,270.04708834812465 H813.8450594731532" fill="none" stroke="currentColor" stroke-width="0.815"/>
                <path d="M806.1330474731532,266.8777683481247 Q803.5975914731532,264.76488834812466 805.7104714731532,263.0745843481247" fill="none" stroke="currentColor" stroke-width="0.815"/></g><g transform="rotate(2 799.216 346.316)" opacity="0.216"><circle cx="799.2158992054766" cy="346.31621801965554" r="10.866239999999985" fill="none" stroke="currentColor" stroke-width="0.815"/>
                <polygon points="799.2158992054766,344.36029481965556 801.1718224054766,346.09889321965557 800.3025232054766,348.7067908196555 798.1292752054766,348.7067908196555 797.2599760054766,346.09889321965557" fill="none" stroke="currentColor" stroke-width="0.815"/>
                <path d="M799.2158992054766,335.44997801965553 L799.2158992054766,344.36029481965556 M809.5388272054765,345.7729060196555 L801.1718224054766,346.09889321965557 M805.5183184054766,355.2265348196555 L800.3025232054766,348.7067908196555 M792.9134800054766,355.2265348196555 L798.1292752054766,348.7067908196555 M788.8929712054767,345.7729060196555 L797.2599760054766,346.09889321965557" stroke="currentColor" stroke-width="0.815"/></g><g transform="rotate(20 810.131 469.565)" opacity="0.216"><polygon points="810.1308192788784,460.5093265801895 808.0018140722549,466.6342023052039 801.5188123125226,466.7663158927255 806.6860164923361,470.6838108551751 804.8083062623197,476.89033726765354 810.1308192788784,473.1866065801895 815.4533322954372,476.89033726765354 813.5756220654208,470.6838108551751 818.7428262452343,466.7663158927255 812.259824485502,466.6342023052039" fill="none" stroke="currentColor" stroke-width="0.815"/></g><g transform="rotate(1 812.105 705.729)" opacity="0.216"><path d="M805.796362035536,700.9117019007045 L809.237338035536,698.1589211007046 Q812.104818035536,700.9117019007045 814.972298035536,698.1589211007046 L818.413274035536,700.9117019007045 L816.233989235536,704.5820763007046 V712.3816219007045 H807.975646835536 V704.5820763007046 Z" fill="none" stroke="currentColor" stroke-width="0.815"/>
                <path d="M810.040232435536,704.5820763007046 H814.628200435536 L811.760720435536,710.0876379007045" fill="none" stroke="currentColor" stroke-width="0.815"/></g><g transform="rotate(-17 802.91 902.905)" opacity="0.216"><g transform="rotate(18,802.910207689842,902.9047065518114)">
            <path d="M794.217215689842,903.5083865518114 Q798.6844476898419,898.6789465518114 805.0834556898419,901.4558745518113 Q810.395839689842,902.6632345518113 811.603199689842,905.9231065518114 H795.9075196898419 Q793.855007689842,905.5608985518114 794.217215689842,903.5083865518114" fill="none" stroke="currentColor" stroke-width="0.815"/>
            <line x1="799.8918076898419" y1="901.4558745518113" x2="802.3065276898419" y2="904.1120665518114" stroke="currentColor" stroke-width="0.815"/>
            <line x1="803.151679689842" y1="901.9388185518114" x2="805.0834556898419" y2="904.1120665518114" stroke="currentColor" stroke-width="0.815"/>
            <path d="M798.6844476898419,905.9231065518114 v1.8110399999999975 M804.721247689842,905.9231065518114 v1.8110399999999975 M808.705535689842,905.9231065518114 v1.8110399999999975" stroke="currentColor" stroke-width="0.815"/>
        </g></g></g><g color="#1f6f3d"><rect x="4" y="4" width="842" height="1092" fill="none" stroke="currentColor" stroke-width="1.3" rx="3"/><line x1="425" y1="12" x2="425" y2="1088" stroke="currentColor" stroke-width="0.8" opacity="0.45"/><circle cx="425" cy="550" r="28" fill="none" stroke="currentColor" stroke-width="0.8" opacity="0.45"/><rect x="8" y="495" width="26" height="110" fill="none" stroke="currentColor" stroke-width="0.8" opacity="0.45"/><rect x="816" y="495" width="26" height="110" fill="none" stroke="currentColor" stroke-width="0.8" opacity="0.45"/><g transform="translate(16,16) scale(1,1)" opacity="0.65"><line x1="0" y1="0" x2="0" y2="18" stroke="currentColor" stroke-width="0.8"/><path d="M0,0 Q8,-3 15,1 V8 Q8,5 0,8" fill="none" stroke="currentColor" stroke-width="0.8"/></g><g transform="translate(834,16) scale(-1,1)" opacity="0.65"><line x1="0" y1="0" x2="0" y2="18" stroke="currentColor" stroke-width="0.8"/><path d="M0,0 Q8,-3 15,1 V8 Q8,5 0,8" fill="none" stroke="currentColor" stroke-width="0.8"/></g><g transform="translate(16,1066) scale(1,1)" opacity="0.65"><line x1="0" y1="0" x2="0" y2="18" stroke="currentColor" stroke-width="0.8"/><path d="M0,0 Q8,-3 15,1 V8 Q8,5 0,8" fill="none" stroke="currentColor" stroke-width="0.8"/></g><g transform="translate(834,1066) scale(-1,1)" opacity="0.65"><line x1="0" y1="0" x2="0" y2="18" stroke="currentColor" stroke-width="0.8"/><path d="M0,0 Q8,-3 15,1 V8 Q8,5 0,8" fill="none" stroke="currentColor" stroke-width="0.8"/></g></g><path d="M296.77142857142854,34.714285714285715 L292.0571428571428,30 L277.9142857142857,30 L273.2,34.714285714285715 L273.2,58.285714285714285 L277.9142857142857,63 L292.0571428571428,63 L296.77142857142854,58.285714285714285 L296.77142857142854,48.85714285714286 L284.98571428571427,48.85714285714286 M309.0285714285714,30 L323.1714285714285,30 L327.88571428571424,34.714285714285715 L327.88571428571424,58.285714285714285 L323.1714285714285,63 L309.0285714285714,63 L304.3142857142857,58.285714285714285 L304.3142857142857,34.714285714285715 L309.0285714285714,30 M335.4285714285714,63 L347.21428571428567,30 L358.99999999999994,63 M340.1428571428571,51.214285714285715 L354.2857142857142,51.214285714285715 M366.5428571428571,30 L366.5428571428571,63 L390.11428571428564,63 M433.4857142857142,30 L447.6285714285713,30 L452.34285714285704,34.714285714285715 L452.34285714285704,58.285714285714285 L447.6285714285713,63 L433.4857142857142,63 L428.7714285714285,58.285714285714285 L428.7714285714285,34.714285714285715 L433.4857142857142,30 M442.91428571428565,53.57142857142857 L452.34285714285704,63 M459.8857142857142,30 L459.8857142857142,58.285714285714285 L464.5999999999999,63 L478.742857142857,63 L483.45714285714274,58.285714285714285 L483.45714285714274,30 M514.5714285714284,30 L490.9999999999999,30 L490.9999999999999,63 L514.5714285714284,63 M490.9999999999999,46.5 L505.14285714285705,46.5 M545.6857142857142,34.714285714285715 L540.9714285714285,30 L526.8285714285713,30 L522.1142857142856,34.714285714285715 L522.1142857142856,44.14285714285714 L526.8285714285713,48.85714285714286 L540.9714285714285,48.85714285714286 L545.6857142857142,53.57142857142857 L545.6857142857142,58.285714285714285 L540.9714285714285,63 L526.8285714285713,63 L522.1142857142856,58.285714285714285 M553.2285714285714,30 L576.8,30 M565.0142857142857,30 L565.0142857142857,63" fill="none" stroke="#fff" stroke-width="10" stroke-linecap="round" stroke-linejoin="round"/><path d="M296.77142857142854,34.714285714285715 L292.0571428571428,30 L277.9142857142857,30 L273.2,34.714285714285715 L273.2,58.285714285714285 L277.9142857142857,63 L292.0571428571428,63 L296.77142857142854,58.285714285714285 L296.77142857142854,48.85714285714286 L284.98571428571427,48.85714285714286 M309.0285714285714,30 L323.1714285714285,30 L327.88571428571424,34.714285714285715 L327.88571428571424,58.285714285714285 L323.1714285714285,63 L309.0285714285714,63 L304.3142857142857,58.285714285714285 L304.3142857142857,34.714285714285715 L309.0285714285714,30 M335.4285714285714,63 L347.21428571428567,30 L358.99999999999994,63 M340.1428571428571,51.214285714285715 L354.2857142857142,51.214285714285715 M366.5428571428571,30 L366.5428571428571,63 L390.11428571428564,63 M433.4857142857142,30 L447.6285714285713,30 L452.34285714285704,34.714285714285715 L452.34285714285704,58.285714285714285 L447.6285714285713,63 L433.4857142857142,63 L428.7714285714285,58.285714285714285 L428.7714285714285,34.714285714285715 L433.4857142857142,30 M442.91428571428565,53.57142857142857 L452.34285714285704,63 M459.8857142857142,30 L459.8857142857142,58.285714285714285 L464.5999999999999,63 L478.742857142857,63 L483.45714285714274,58.285714285714285 L483.45714285714274,30 M514.5714285714284,30 L490.9999999999999,30 L490.9999999999999,63 L514.5714285714284,63 M490.9999999999999,46.5 L505.14285714285705,46.5 M545.6857142857142,34.714285714285715 L540.9714285714285,30 L526.8285714285713,30 L522.1142857142856,34.714285714285715 L522.1142857142856,44.14285714285714 L526.8285714285713,48.85714285714286 L540.9714285714285,48.85714285714286 L545.6857142857142,53.57142857142857 L545.6857142857142,58.285714285714285 L540.9714285714285,63 L526.8285714285713,63 L522.1142857142856,58.285714285714285 M553.2285714285714,30 L576.8,30 M565.0142857142857,30 L565.0142857142857,63" fill="none" stroke="#1f6f3d" stroke-width="4.2" stroke-linecap="round" stroke-linejoin="round"/><path d="M337,84.99999999999994h35.2v35.2h-35.2zM372.2,84.99999999999994h35.2v35.2h-35.2zM407.4,84.99999999999994h35.2v35.2h-35.2zM442.59999999999997,84.99999999999994h35.2v35.2h-35.2zM477.8,84.99999999999994h35.2v35.2h-35.2zM266.59999999999997,120.19999999999995h35.2v35.2h-35.2zM301.79999999999995,120.19999999999995h35.2v35.2h-35.2zM337,120.19999999999995h35.2v35.2h-35.2zM372.2,120.19999999999995h35.2v35.2h-35.2zM407.4,120.19999999999995h35.2v35.2h-35.2zM442.59999999999997,120.19999999999995h35.2v35.2h-35.2zM477.8,120.19999999999995h35.2v35.2h-35.2zM513,120.19999999999995h35.2v35.2h-35.2zM548.2,120.19999999999995h35.2v35.2h-35.2zM231.39999999999998,155.39999999999995h35.2v35.2h-35.2zM266.59999999999997,155.39999999999995h35.2v35.2h-35.2zM301.79999999999995,155.39999999999995h35.2v35.2h-35.2zM337,155.39999999999995h35.2v35.2h-35.2zM372.2,155.39999999999995h35.2v35.2h-35.2zM407.4,155.39999999999995h35.2v35.2h-35.2zM442.59999999999997,155.39999999999995h35.2v35.2h-35.2zM477.8,155.39999999999995h35.2v35.2h-35.2zM513,155.39999999999995h35.2v35.2h-35.2zM548.2,155.39999999999995h35.2v35.2h-35.2zM583.4000000000001,155.39999999999995h35.2v35.2h-35.2zM196.2,190.59999999999997h35.2v35.2h-35.2zM231.39999999999998,190.59999999999997h35.2v35.2h-35.2zM266.59999999999997,190.59999999999997h35.2v35.2h-35.2zM301.79999999999995,190.59999999999997h35.2v35.2h-35.2zM337,190.59999999999997h35.2v35.2h-35.2zM372.2,190.59999999999997h35.2v35.2h-35.2zM407.4,190.59999999999997h35.2v35.2h-35.2zM442.59999999999997,190.59999999999997h35.2v35.2h-35.2zM477.8,190.59999999999997h35.2v35.2h-35.2zM513,190.59999999999997h35.2v35.2h-35.2zM548.2,190.59999999999997h35.2v35.2h-35.2zM583.4000000000001,190.59999999999997h35.2v35.2h-35.2zM618.5999999999999,190.59999999999997h35.2v35.2h-35.2zM160.99999999999997,225.79999999999995h35.2v35.2h-35.2zM196.2,225.79999999999995h35.2v35.2h-35.2zM231.39999999999998,225.79999999999995h35.2v35.2h-35.2zM266.59999999999997,225.79999999999995h35.2v35.2h-35.2zM301.79999999999995,225.79999999999995h35.2v35.2h-35.2zM337,225.79999999999995h35.2v35.2h-35.2zM372.2,225.79999999999995h35.2v35.2h-35.2zM407.4,225.79999999999995h35.2v35.2h-35.2zM442.59999999999997,225.79999999999995h35.2v35.2h-35.2zM477.8,225.79999999999995h35.2v35.2h-35.2zM513,225.79999999999995h35.2v35.2h-35.2zM548.2,225.79999999999995h35.2v35.2h-35.2zM583.4000000000001,225.79999999999995h35.2v35.2h-35.2zM618.5999999999999,225.79999999999995h35.2v35.2h-35.2zM653.8,225.79999999999995h35.2v35.2h-35.2zM160.99999999999997,260.99999999999994h35.2v35.2h-35.2zM196.2,260.99999999999994h35.2v35.2h-35.2zM231.39999999999998,260.99999999999994h35.2v35.2h-35.2zM266.59999999999997,260.99999999999994h35.2v35.2h-35.2zM301.79999999999995,260.99999999999994h35.2v35.2h-35.2zM337,260.99999999999994h35.2v35.2h-35.2zM372.2,260.99999999999994h35.2v35.2h-35.2zM407.4,260.99999999999994h35.2v35.2h-35.2zM442.59999999999997,260.99999999999994h35.2v35.2h-35.2zM477.8,260.99999999999994h35.2v35.2h-35.2zM513,260.99999999999994h35.2v35.2h-35.2zM548.2,260.99999999999994h35.2v35.2h-35.2zM583.4000000000001,260.99999999999994h35.2v35.2h-35.2zM618.5999999999999,260.99999999999994h35.2v35.2h-35.2zM653.8,260.99999999999994h35.2v35.2h-35.2zM125.79999999999997,296.19999999999993h35.2v35.2h-35.2zM160.99999999999997,296.19999999999993h35.2v35.2h-35.2zM196.2,296.19999999999993h35.2v35.2h-35.2zM231.39999999999998,296.19999999999993h35.2v35.2h-35.2zM266.59999999999997,296.19999999999993h35.2v35.2h-35.2zM301.79999999999995,296.19999999999993h35.2v35.2h-35.2zM337,296.19999999999993h35.2v35.2h-35.2zM372.2,296.19999999999993h35.2v35.2h-35.2zM407.4,296.19999999999993h35.2v35.2h-35.2zM442.59999999999997,296.19999999999993h35.2v35.2h-35.2zM477.8,296.19999999999993h35.2v35.2h-35.2zM513,296.19999999999993h35.2v35.2h-35.2zM548.2,296.19999999999993h35.2v35.2h-35.2zM583.4000000000001,296.19999999999993h35.2v35.2h-35.2zM618.5999999999999,296.19999999999993h35.2v35.2h-35.2zM653.8,296.19999999999993h35.2v35.2h-35.2zM689,296.19999999999993h35.2v35.2h-35.2zM125.79999999999997,331.4h35.2v35.2h-35.2zM160.99999999999997,331.4h35.2v35.2h-35.2zM196.2,331.4h35.2v35.2h-35.2zM231.39999999999998,331.4h35.2v35.2h-35.2zM266.59999999999997,331.4h35.2v35.2h-35.2zM301.79999999999995,331.4h35.2v35.2h-35.2zM337,331.4h35.2v35.2h-35.2zM372.2,331.4h35.2v35.2h-35.2zM407.4,331.4h35.2v35.2h-35.2zM442.59999999999997,331.4h35.2v35.2h-35.2zM477.8,331.4h35.2v35.2h-35.2zM513,331.4h35.2v35.2h-35.2zM548.2,331.4h35.2v35.2h-35.2zM583.4000000000001,331.4h35.2v35.2h-35.2zM618.5999999999999,331.4h35.2v35.2h-35.2zM653.8,331.4h35.2v35.2h-35.2zM689,331.4h35.2v35.2h-35.2zM90.59999999999997,366.59999999999997h35.2v35.2h-35.2zM125.79999999999997,366.59999999999997h35.2v35.2h-35.2zM160.99999999999997,366.59999999999997h35.2v35.2h-35.2zM196.2,366.59999999999997h35.2v35.2h-35.2zM231.39999999999998,366.59999999999997h35.2v35.2h-35.2zM266.59999999999997,366.59999999999997h35.2v35.2h-35.2zM301.79999999999995,366.59999999999997h35.2v35.2h-35.2zM337,366.59999999999997h35.2v35.2h-35.2zM372.2,366.59999999999997h35.2v35.2h-35.2zM407.4,366.59999999999997h35.2v35.2h-35.2zM442.59999999999997,366.59999999999997h35.2v35.2h-35.2zM477.8,366.59999999999997h35.2v35.2h-35.2zM513,366.59999999999997h35.2v35.2h-35.2zM548.2,366.59999999999997h35.2v35.2h-35.2zM583.4000000000001,366.59999999999997h35.2v35.2h-35.2zM618.5999999999999,366.59999999999997h35.2v35.2h-35.2zM653.8,366.59999999999997h35.2v35.2h-35.2zM689,366.59999999999997h35.2v35.2h-35.2zM724.2,366.59999999999997h35.2v35.2h-35.2zM90.59999999999997,401.79999999999995h35.2v35.2h-35.2zM125.79999999999997,401.79999999999995h35.2v35.2h-35.2zM160.99999999999997,401.79999999999995h35.2v35.2h-35.2zM196.2,401.79999999999995h35.2v35.2h-35.2zM231.39999999999998,401.79999999999995h35.2v35.2h-35.2zM266.59999999999997,401.79999999999995h35.2v35.2h-35.2zM301.79999999999995,401.79999999999995h35.2v35.2h-35.2zM337,401.79999999999995h35.2v35.2h-35.2zM372.2,401.79999999999995h35.2v35.2h-35.2zM407.4,401.79999999999995h35.2v35.2h-35.2zM442.59999999999997,401.79999999999995h35.2v35.2h-35.2zM477.8,401.79999999999995h35.2v35.2h-35.2zM513,401.79999999999995h35.2v35.2h-35.2zM548.2,401.79999999999995h35.2v35.2h-35.2zM583.4000000000001,401.79999999999995h35.2v35.2h-35.2zM618.5999999999999,401.79999999999995h35.2v35.2h-35.2zM653.8,401.79999999999995h35.2v35.2h-35.2zM689,401.79999999999995h35.2v35.2h-35.2zM724.2,401.79999999999995h35.2v35.2h-35.2zM90.59999999999997,436.99999999999994h35.2v35.2h-35.2zM125.79999999999997,436.99999999999994h35.2v35.2h-35.2zM160.99999999999997,436.99999999999994h35.2v35.2h-35.2zM196.2,436.99999999999994h35.2v35.2h-35.2zM231.39999999999998,436.99999999999994h35.2v35.2h-35.2zM266.59999999999997,436.99999999999994h35.2v35.2h-35.2zM301.79999999999995,436.99999999999994h35.2v35.2h-35.2zM337,436.99999999999994h35.2v35.2h-35.2zM372.2,436.99999999999994h35.2v35.2h-35.2zM407.4,436.99999999999994h35.2v35.2h-35.2zM442.59999999999997,436.99999999999994h35.2v35.2h-35.2zM477.8,436.99999999999994h35.2v35.2h-35.2zM513,436.99999999999994h35.2v35.2h-35.2zM548.2,436.99999999999994h35.2v35.2h-35.2zM583.4000000000001,436.99999999999994h35.2v35.2h-35.2zM618.5999999999999,436.99999999999994h35.2v35.2h-35.2zM653.8,436.99999999999994h35.2v35.2h-35.2zM689,436.99999999999994h35.2v35.2h-35.2zM724.2,436.99999999999994h35.2v35.2h-35.2zM90.59999999999997,472.2h35.2v35.2h-35.2zM125.79999999999997,472.2h35.2v35.2h-35.2zM160.99999999999997,472.2h35.2v35.2h-35.2zM196.2,472.2h35.2v35.2h-35.2zM231.39999999999998,472.2h35.2v35.2h-35.2zM266.59999999999997,472.2h35.2v35.2h-35.2zM301.79999999999995,472.2h35.2v35.2h-35.2zM337,472.2h35.2v35.2h-35.2zM372.2,472.2h35.2v35.2h-35.2zM407.4,472.2h35.2v35.2h-35.2zM442.59999999999997,472.2h35.2v35.2h-35.2zM477.8,472.2h35.2v35.2h-35.2zM513,472.2h35.2v35.2h-35.2zM548.2,472.2h35.2v35.2h-35.2zM583.4000000000001,472.2h35.2v35.2h-35.2zM618.5999999999999,472.2h35.2v35.2h-35.2zM653.8,472.2h35.2v35.2h-35.2zM689,472.2h35.2v35.2h-35.2zM724.2,472.2h35.2v35.2h-35.2zM90.59999999999997,507.4h35.2v35.2h-35.2zM125.79999999999997,507.4h35.2v35.2h-35.2zM160.99999999999997,507.4h35.2v35.2h-35.2zM196.2,507.4h35.2v35.2h-35.2zM231.39999999999998,507.4h35.2v35.2h-35.2zM266.59999999999997,507.4h35.2v35.2h-35.2zM301.79999999999995,507.4h35.2v35.2h-35.2zM337,507.4h35.2v35.2h-35.2zM372.2,507.4h35.2v35.2h-35.2zM407.4,507.4h35.2v35.2h-35.2zM442.59999999999997,507.4h35.2v35.2h-35.2zM477.8,507.4h35.2v35.2h-35.2zM513,507.4h35.2v35.2h-35.2zM548.2,507.4h35.2v35.2h-35.2zM583.4000000000001,507.4h35.2v35.2h-35.2zM618.5999999999999,507.4h35.2v35.2h-35.2zM653.8,507.4h35.2v35.2h-35.2zM689,507.4h35.2v35.2h-35.2zM724.2,507.4h35.2v35.2h-35.2zM90.59999999999997,542.5999999999999h35.2v35.2h-35.2zM125.79999999999997,542.5999999999999h35.2v35.2h-35.2zM160.99999999999997,542.5999999999999h35.2v35.2h-35.2zM196.2,542.5999999999999h35.2v35.2h-35.2zM231.39999999999998,542.5999999999999h35.2v35.2h-35.2zM266.59999999999997,542.5999999999999h35.2v35.2h-35.2zM301.79999999999995,542.5999999999999h35.2v35.2h-35.2zM337,542.5999999999999h35.2v35.2h-35.2zM372.2,542.5999999999999h35.2v35.2h-35.2zM407.4,542.5999999999999h35.2v35.2h-35.2zM442.59999999999997,542.5999999999999h35.2v35.2h-35.2zM477.8,542.5999999999999h35.2v35.2h-35.2zM513,542.5999999999999h35.2v35.2h-35.2zM548.2,542.5999999999999h35.2v35.2h-35.2zM583.4000000000001,542.5999999999999h35.2v35.2h-35.2zM618.5999999999999,542.5999999999999h35.2v35.2h-35.2zM653.8,542.5999999999999h35.2v35.2h-35.2zM689,542.5999999999999h35.2v35.2h-35.2zM724.2,542.5999999999999h35.2v35.2h-35.2zM90.59999999999997,577.8h35.2v35.2h-35.2zM125.79999999999997,577.8h35.2v35.2h-35.2zM160.99999999999997,577.8h35.2v35.2h-35.2zM196.2,577.8h35.2v35.2h-35.2zM231.39999999999998,577.8h35.2v35.2h-35.2zM266.59999999999997,577.8h35.2v35.2h-35.2zM301.79999999999995,577.8h35.2v35.2h-35.2zM337,577.8h35.2v35.2h-35.2zM372.2,577.8h35.2v35.2h-35.2zM407.4,577.8h35.2v35.2h-35.2zM442.59999999999997,577.8h35.2v35.2h-35.2zM477.8,577.8h35.2v35.2h-35.2zM513,577.8h35.2v35.2h-35.2zM548.2,577.8h35.2v35.2h-35.2zM583.4000000000001,577.8h35.2v35.2h-35.2zM618.5999999999999,577.8h35.2v35.2h-35.2zM653.8,577.8h35.2v35.2h-35.2zM689,577.8h35.2v35.2h-35.2zM724.2,577.8h35.2v35.2h-35.2zM90.59999999999997,613h35.2v35.2h-35.2zM125.79999999999997,613h35.2v35.2h-35.2zM160.99999999999997,613h35.2v35.2h-35.2zM196.2,613h35.2v35.2h-35.2zM231.39999999999998,613h35.2v35.2h-35.2zM266.59999999999997,613h35.2v35.2h-35.2zM301.79999999999995,613h35.2v35.2h-35.2zM337,613h35.2v35.2h-35.2zM372.2,613h35.2v35.2h-35.2zM407.4,613h35.2v35.2h-35.2zM442.59999999999997,613h35.2v35.2h-35.2zM477.8,613h35.2v35.2h-35.2zM513,613h35.2v35.2h-35.2zM548.2,613h35.2v35.2h-35.2zM583.4000000000001,613h35.2v35.2h-35.2zM618.5999999999999,613h35.2v35.2h-35.2zM653.8,613h35.2v35.2h-35.2zM689,613h35.2v35.2h-35.2zM724.2,613h35.2v35.2h-35.2zM90.59999999999997,648.2h35.2v35.2h-35.2zM125.79999999999997,648.2h35.2v35.2h-35.2zM160.99999999999997,648.2h35.2v35.2h-35.2zM196.2,648.2h35.2v35.2h-35.2zM231.39999999999998,648.2h35.2v35.2h-35.2zM266.59999999999997,648.2h35.2v35.2h-35.2zM301.79999999999995,648.2h35.2v35.2h-35.2zM337,648.2h35.2v35.2h-35.2zM372.2,648.2h35.2v35.2h-35.2zM407.4,648.2h35.2v35.2h-35.2zM442.59999999999997,648.2h35.2v35.2h-35.2zM477.8,648.2h35.2v35.2h-35.2zM513,648.2h35.2v35.2h-35.2zM548.2,648.2h35.2v35.2h-35.2zM583.4000000000001,648.2h35.2v35.2h-35.2zM618.5999999999999,648.2h35.2v35.2h-35.2zM653.8,648.2h35.2v35.2h-35.2zM689,648.2h35.2v35.2h-35.2zM724.2,648.2h35.2v35.2h-35.2zM125.79999999999997,683.4000000000001h35.2v35.2h-35.2zM160.99999999999997,683.4000000000001h35.2v35.2h-35.2zM196.2,683.4000000000001h35.2v35.2h-35.2zM231.39999999999998,683.4000000000001h35.2v35.2h-35.2zM266.59999999999997,683.4000000000001h35.2v35.2h-35.2zM301.79999999999995,683.4000000000001h35.2v35.2h-35.2zM337,683.4000000000001h35.2v35.2h-35.2zM372.2,683.4000000000001h35.2v35.2h-35.2zM407.4,683.4000000000001h35.2v35.2h-35.2zM442.59999999999997,683.4000000000001h35.2v35.2h-35.2zM477.8,683.4000000000001h35.2v35.2h-35.2zM513,683.4000000000001h35.2v35.2h-35.2zM548.2,683.4000000000001h35.2v35.2h-35.2zM583.4000000000001,683.4000000000001h35.2v35.2h-35.2zM618.5999999999999,683.4000000000001h35.2v35.2h-35.2zM653.8,683.4000000000001h35.2v35.2h-35.2zM689,683.4000000000001h35.2v35.2h-35.2zM125.79999999999997,718.5999999999999h35.2v35.2h-35.2zM160.99999999999997,718.5999999999999h35.2v35.2h-35.2zM196.2,718.5999999999999h35.2v35.2h-35.2zM231.39999999999998,718.5999999999999h35.2v35.2h-35.2zM266.59999999999997,718.5999999999999h35.2v35.2h-35.2zM301.79999999999995,718.5999999999999h35.2v35.2h-35.2zM337,718.5999999999999h35.2v35.2h-35.2zM372.2,718.5999999999999h35.2v35.2h-35.2zM407.4,718.5999999999999h35.2v35.2h-35.2zM442.59999999999997,718.5999999999999h35.2v35.2h-35.2zM477.8,718.5999999999999h35.2v35.2h-35.2zM513,718.5999999999999h35.2v35.2h-35.2zM548.2,718.5999999999999h35.2v35.2h-35.2zM583.4000000000001,718.5999999999999h35.2v35.2h-35.2zM618.5999999999999,718.5999999999999h35.2v35.2h-35.2zM653.8,718.5999999999999h35.2v35.2h-35.2zM689,718.5999999999999h35.2v35.2h-35.2zM160.99999999999997,753.8h35.2v35.2h-35.2zM196.2,753.8h35.2v35.2h-35.2zM231.39999999999998,753.8h35.2v35.2h-35.2zM266.59999999999997,753.8h35.2v35.2h-35.2zM301.79999999999995,753.8h35.2v35.2h-35.2zM337,753.8h35.2v35.2h-35.2zM372.2,753.8h35.2v35.2h-35.2zM407.4,753.8h35.2v35.2h-35.2zM442.59999999999997,753.8h35.2v35.2h-35.2zM477.8,753.8h35.2v35.2h-35.2zM513,753.8h35.2v35.2h-35.2zM548.2,753.8h35.2v35.2h-35.2zM583.4000000000001,753.8h35.2v35.2h-35.2zM618.5999999999999,753.8h35.2v35.2h-35.2zM653.8,753.8h35.2v35.2h-35.2zM160.99999999999997,789h35.2v35.2h-35.2zM196.2,789h35.2v35.2h-35.2zM231.39999999999998,789h35.2v35.2h-35.2zM266.59999999999997,789h35.2v35.2h-35.2zM301.79999999999995,789h35.2v35.2h-35.2zM337,789h35.2v35.2h-35.2zM372.2,789h35.2v35.2h-35.2zM407.4,789h35.2v35.2h-35.2zM442.59999999999997,789h35.2v35.2h-35.2zM477.8,789h35.2v35.2h-35.2zM513,789h35.2v35.2h-35.2zM548.2,789h35.2v35.2h-35.2zM583.4000000000001,789h35.2v35.2h-35.2zM618.5999999999999,789h35.2v35.2h-35.2zM653.8,789h35.2v35.2h-35.2zM196.2,824.2h35.2v35.2h-35.2zM231.39999999999998,824.2h35.2v35.2h-35.2zM266.59999999999997,824.2h35.2v35.2h-35.2zM301.79999999999995,824.2h35.2v35.2h-35.2zM337,824.2h35.2v35.2h-35.2zM372.2,824.2h35.2v35.2h-35.2zM407.4,824.2h35.2v35.2h-35.2zM442.59999999999997,824.2h35.2v35.2h-35.2zM477.8,824.2h35.2v35.2h-35.2zM513,824.2h35.2v35.2h-35.2zM548.2,824.2h35.2v35.2h-35.2zM583.4000000000001,824.2h35.2v35.2h-35.2zM618.5999999999999,824.2h35.2v35.2h-35.2zM231.39999999999998,859.4000000000001h35.2v35.2h-35.2zM266.59999999999997,859.4000000000001h35.2v35.2h-35.2zM301.79999999999995,859.4000000000001h35.2v35.2h-35.2zM337,859.4000000000001h35.2v35.2h-35.2zM372.2,859.4000000000001h35.2v35.2h-35.2zM407.4,859.4000000000001h35.2v35.2h-35.2zM442.59999999999997,859.4000000000001h35.2v35.2h-35.2zM477.8,859.4000000000001h35.2v35.2h-35.2zM513,859.4000000000001h35.2v35.2h-35.2zM548.2,859.4000000000001h35.2v35.2h-35.2zM583.4000000000001,859.4000000000001h35.2v35.2h-35.2zM266.59999999999997,894.5999999999999h35.2v35.2h-35.2zM301.79999999999995,894.5999999999999h35.2v35.2h-35.2zM337,894.5999999999999h35.2v35.2h-35.2zM372.2,894.5999999999999h35.2v35.2h-35.2zM407.4,894.5999999999999h35.2v35.2h-35.2zM442.59999999999997,894.5999999999999h35.2v35.2h-35.2zM477.8,894.5999999999999h35.2v35.2h-35.2zM513,894.5999999999999h35.2v35.2h-35.2zM548.2,894.5999999999999h35.2v35.2h-35.2zM337,929.8h35.2v35.2h-35.2zM372.2,929.8h35.2v35.2h-35.2zM407.4,929.8h35.2v35.2h-35.2zM442.59999999999997,929.8h35.2v35.2h-35.2zM477.8,929.8h35.2v35.2h-35.2z" fill="#f7fff7"/><g style="color:#1f6f3d; stroke:#1f6f3d; fill:#1f6f3d"><path d="M143.39999999999998,79.27199999999993 Q157.98,88.01999999999994 152.47199999999998,121.39199999999994 Q143.39999999999998,127.87199999999994 134.32799999999997,121.39199999999994 Q128.81999999999996,88.01999999999994 143.39999999999998,79.27199999999993" fill="none" stroke="currentColor" stroke-width="2.7"/>
                <path d="M136.92,97.73999999999994 H149.87999999999997 M138.53999999999996,108.43199999999993 H148.26" stroke="currentColor" stroke-width="2.7"/><rect x="734.6719999999999" y="122.24799999999995" width="14.256000000000002" height="35.64000000000001" rx="3.8880000000000003" fill="none" stroke="currentColor" stroke-width="2.7"/>
                <rect x="737.2639999999999" y="115.11999999999995" width="9.072000000000003" height="7.128000000000001" fill="none" stroke="currentColor" stroke-width="2.7"/>
                <path d="M735.3199999999999,134.55999999999995 H748.28 M737.2639999999999,143.63199999999995 H746.336" stroke="currentColor" stroke-width="2.7"/><circle cx="706.5999999999999" cy="947.4000000000001" r="32.400000000000006" fill="none" stroke="currentColor" stroke-width="2.7"/>
                <polygon points="706.5999999999999,941.5680000000001 712.4319999999999,946.7520000000001 709.8399999999999,954.5280000000001 703.3599999999999,954.5280000000001 700.7679999999999,946.7520000000001" fill="none" stroke="currentColor" stroke-width="2.7"/>
                <path d="M706.5999999999999,915.0000000000001 L706.5999999999999,941.5680000000001 M737.3799999999999,945.7800000000001 L712.4319999999999,946.7520000000001 M725.3919999999999,973.9680000000001 L709.8399999999999,954.5280000000001 M687.8079999999999,973.9680000000001 L703.3599999999999,954.5280000000001 M675.8199999999999,945.7800000000001 L700.7679999999999,946.7520000000001" stroke="currentColor" stroke-width="2.7"/></g><g color="#1f6f3d"><circle cx="460.2" cy="108.35027199999995" r="5.9136000000000015" fill="none" stroke="currentColor" stroke-width="2.5344"/>
                <path d="M454.996032,103.61939199999995 Q460.2,98.88851199999993 465.40396799999996,103.61939199999995" fill="none" stroke="currentColor" stroke-width="2.5344"/>
                <path d="M465.40396799999996,104.56556799999994 Q472.500288,109.29644799999994 466.823232,114.73695999999995" fill="none" stroke="currentColor" stroke-width="2.5344"/>
                <path d="M452.630592,116.39276799999995 H467.769408 L470.134848,129.63923199999996 H450.265152 Z" fill="none" stroke="currentColor" stroke-width="2.5344"/>
                <path d="M457.361472,121.12364799999995 H463.74816 L459.72691199999997,127.27379199999994" fill="none" stroke="currentColor" stroke-width="2.5344"/>
                <path d="M452.15750399999996,121.83327999999995 L445.534272,125.38143999999996 M468.242496,121.83327999999995 L473.919552,124.43526399999995" stroke="currentColor" stroke-width="2.5344"/>
                <path d="M455.942208,129.63923199999996 L451.211328,140.04716799999994 M464.457792,129.63923199999996 L470.84448,137.20863999999995" stroke="currentColor" stroke-width="2.5344"/>
                <circle cx="475.338816" cy="140.04716799999994" r="3.5481600000000006" fill="none" stroke="currentColor" stroke-width="2.5344"/></g><g color="#1f6f3d"><path d="M208.401728,777.3473919999999 H219.19827199999997 V785.4447999999999 H208.401728 Z" fill="none" stroke="currentColor" stroke-width="2.112"/>
                <path d="M200.30432,746.4572799999999 H227.29567999999998 V761.4524799999999 Q225.196352,771.9491199999999 213.79999999999998,775.5479679999999 Q202.40364799999998,771.9491199999999 200.30432,761.4524799999999 Z" fill="none" stroke="currentColor" stroke-width="2.112"/>
                <path d="M200.30432,752.4553599999999 Q192.206912,755.4543999999999 196.405568,761.4524799999999 M227.29567999999998,752.4553599999999 Q235.39308799999998,755.4543999999999 231.19443199999998,761.4524799999999" stroke="currentColor" stroke-width="2.112" fill="none"/>
                <path d="M210.20115199999998,757.5537279999999 H218.29855999999998 L212.600384,768.3502719999999" fill="none" stroke="currentColor" stroke-width="2.112"/></g><g style="color:#1f6f3d; stroke:#1f6f3d; fill:#1f6f3d"><path d="M319.4,392.02848 Q336.50719999999995,402.2928 330.04447999999996,441.44928 Q319.4,449.05248 308.75552,441.44928 Q302.2928,402.2928 319.4,392.02848" fill="none" stroke="currentColor" stroke-width="3.168"/>
                <path d="M311.79679999999996,413.69759999999997 H327.0032 M313.69759999999997,426.24287999999996 H325.1024" stroke="currentColor" stroke-width="3.168"/><path d="M543.7295999999999,684.14624 L555.7679999999999,674.51552 Q565.8,684.14624 575.832,674.51552 L587.8704,684.14624 L580.24608,696.9872 V724.27424 H551.3539199999999 V696.9872 Z" fill="none" stroke="currentColor" stroke-width="3.168"/>
                <path d="M558.57696,696.9872 H574.62816 L564.5961599999999,716.24864" fill="none" stroke="currentColor" stroke-width="3.168"/><polygon points="601,422.91999999999996 593.5515852829498,444.3481366472806 570.8705295637695,444.8103416182016 588.9482118255078,458.5158633527193 582.3789632073745,480.2296583817983 601,467.272 619.6210367926255,480.2296583817983 613.0517881744922,458.5158633527193 631.1294704362305,444.8103416182016 608.4484147170502,444.3481366472806" fill="none" stroke="currentColor" stroke-width="3.168"/></g><g style="color:#1f6f3d; stroke:#1f6f3d; fill:#1f6f3d"></g><path d="M337,84.99999999999994L372.2,84.99999999999994M337,84.99999999999994L337,120.19999999999995M372.2,84.99999999999994L407.4,84.99999999999994M372.2,84.99999999999994L372.2,120.19999999999995M407.4,84.99999999999994L442.59999999999997,84.99999999999994M442.59999999999997,84.99999999999994L477.79999999999995,84.99999999999994M477.8,84.99999999999994L513,84.99999999999994M513,84.99999999999994L513,120.19999999999995M266.59999999999997,120.19999999999995L301.79999999999995,120.19999999999995M266.59999999999997,120.19999999999995L266.59999999999997,155.39999999999995M301.79999999999995,120.19999999999995L336.99999999999994,120.19999999999995M337,120.19999999999995L337,155.39999999999995M407.4,120.19999999999995L407.4,155.39999999999995M513,120.19999999999995L548.2,120.19999999999995M548.2,120.19999999999995L583.4000000000001,120.19999999999995M583.4000000000001,120.19999999999995L583.4000000000001,155.39999999999995M231.39999999999998,155.39999999999995L266.59999999999997,155.39999999999995M231.39999999999998,155.39999999999995L231.39999999999998,190.59999999999997M266.59999999999997,155.39999999999995L301.79999999999995,155.39999999999995M337,155.39999999999995L372.2,155.39999999999995M372.2,155.39999999999995L407.4,155.39999999999995M372.2,155.39999999999995L372.2,190.59999999999997M513,155.39999999999995L548.2,155.39999999999995M548.2,155.39999999999995L548.2,190.59999999999997M583.4000000000001,155.39999999999995L618.6000000000001,155.39999999999995M618.6000000000001,155.39999999999995L618.6000000000001,190.59999999999997M196.2,190.59999999999997L231.39999999999998,190.59999999999997M196.2,190.59999999999997L196.2,225.79999999999995M231.39999999999998,190.59999999999997L231.39999999999998,225.79999999999995M266.59999999999997,190.59999999999997L301.79999999999995,190.59999999999997M301.79999999999995,190.59999999999997L336.99999999999994,190.59999999999997M337,190.59999999999997L337,225.79999999999995M372.2,190.59999999999997L372.2,225.79999999999995M407.4,190.59999999999997L442.59999999999997,190.59999999999997M407.4,190.59999999999997L407.4,225.79999999999995M442.59999999999997,190.59999999999997L477.79999999999995,190.59999999999997M477.8,190.59999999999997L513,190.59999999999997M477.8,190.59999999999997L477.8,225.79999999999995M548.2,190.59999999999997L548.2,225.79999999999995M583.4000000000001,190.59999999999997L618.6000000000001,190.59999999999997M618.5999999999999,190.59999999999997L653.8,190.59999999999997M653.8,190.59999999999997L653.8,225.79999999999995M160.99999999999997,225.79999999999995L196.2,225.79999999999995M160.99999999999997,225.79999999999995L160.99999999999997,260.99999999999994M196.2,225.79999999999995L196.2,260.99999999999994M266.59999999999997,225.79999999999995L301.79999999999995,225.79999999999995M266.59999999999997,225.79999999999995L266.59999999999997,260.99999999999994M301.79999999999995,225.79999999999995L301.79999999999995,260.99999999999994M337,225.79999999999995L372.2,225.79999999999995M372.2,225.79999999999995L372.2,260.99999999999994M442.59999999999997,225.79999999999995L442.59999999999997,260.99999999999994M477.8,225.79999999999995L477.8,260.99999999999994M513,225.79999999999995L548.2,225.79999999999995M513,225.79999999999995L513,260.99999999999994M548.2,225.79999999999995L583.4000000000001,225.79999999999995M618.5999999999999,225.79999999999995L618.5999999999999,260.99999999999994M653.8,225.79999999999995L689,225.79999999999995M653.8,225.79999999999995L653.8,260.99999999999994M689,225.79999999999995L689,260.99999999999994M160.99999999999997,260.99999999999994L160.99999999999997,296.19999999999993M196.2,260.99999999999994L196.2,296.19999999999993M231.39999999999998,260.99999999999994L266.59999999999997,260.99999999999994M301.79999999999995,260.99999999999994L336.99999999999994,260.99999999999994M337,260.99999999999994L337,296.19999999999993M372.2,260.99999999999994L407.4,260.99999999999994M407.4,260.99999999999994L442.59999999999997,260.99999999999994M442.59999999999997,260.99999999999994L442.59999999999997,296.19999999999993M477.8,260.99999999999994L477.8,296.19999999999993M513,260.99999999999994L513,296.19999999999993M548.2,260.99999999999994L583.4000000000001,260.99999999999994M548.2,260.99999999999994L548.2,296.19999999999993M583.4000000000001,260.99999999999994L618.6000000000001,260.99999999999994M618.5999999999999,260.99999999999994L618.5999999999999,296.19999999999993M653.8,260.99999999999994L653.8,296.19999999999993M689,260.99999999999994L689,296.19999999999993M125.79999999999997,296.19999999999993L160.99999999999997,296.19999999999993M125.79999999999997,296.19999999999993L125.79999999999997,331.3999999999999M196.2,296.19999999999993L231.39999999999998,296.19999999999993M196.2,296.19999999999993L196.2,331.3999999999999M266.59999999999997,296.19999999999993L301.79999999999995,296.19999999999993M266.59999999999997,296.19999999999993L266.59999999999997,331.3999999999999M301.79999999999995,296.19999999999993L336.99999999999994,296.19999999999993M372.2,296.19999999999993L407.4,296.19999999999993M372.2,296.19999999999993L372.2,331.3999999999999M407.4,296.19999999999993L442.59999999999997,296.19999999999993M442.59999999999997,296.19999999999993L442.59999999999997,331.3999999999999M477.8,296.19999999999993L513,296.19999999999993M548.2,296.19999999999993L548.2,331.3999999999999M583.4000000000001,296.19999999999993L583.4000000000001,331.3999999999999M653.8,296.19999999999993L653.8,331.3999999999999M689,296.19999999999993L724.2,296.19999999999993M724.2,296.19999999999993L724.2,331.3999999999999M125.79999999999997,331.4L125.79999999999997,366.59999999999997M160.99999999999997,331.4L196.2,331.4M231.39999999999998,331.4L266.59999999999997,331.4M231.39999999999998,331.4L231.39999999999998,366.59999999999997M301.79999999999995,331.4L336.99999999999994,331.4M301.79999999999995,331.4L301.79999999999995,366.59999999999997M337,331.4L372.2,331.4M372.2,331.4L372.2,366.59999999999997M407.4,331.4L407.4,366.59999999999997M442.59999999999997,331.4L477.79999999999995,331.4M477.8,331.4L513,331.4M477.8,331.4L477.8,366.59999999999997M513,331.4L548.2,331.4M548.2,331.4L548.2,366.59999999999997M583.4000000000001,331.4L618.6000000000001,331.4M618.5999999999999,331.4L653.8,331.4M618.5999999999999,331.4L618.5999999999999,366.59999999999997M653.8,331.4L689,331.4M724.2,331.4L724.2,366.59999999999997M90.59999999999997,366.59999999999997L125.79999999999997,366.59999999999997M90.59999999999997,366.59999999999997L90.59999999999997,401.79999999999995M125.79999999999997,366.59999999999997L125.79999999999997,401.79999999999995M160.99999999999997,366.59999999999997L196.2,366.59999999999997M196.2,366.59999999999997L231.39999999999998,366.59999999999997M231.39999999999998,366.59999999999997L231.39999999999998,401.79999999999995M266.59999999999997,366.59999999999997L301.79999999999995,366.59999999999997M372.2,366.59999999999997L372.2,401.79999999999995M407.4,366.59999999999997L442.59999999999997,366.59999999999997M407.4,366.59999999999997L407.4,401.79999999999995M442.59999999999997,366.59999999999997L442.59999999999997,401.79999999999995M513,366.59999999999997L513,401.79999999999995M548.2,366.59999999999997L583.4000000000001,366.59999999999997M583.4000000000001,366.59999999999997L583.4000000000001,401.79999999999995M618.5999999999999,366.59999999999997L653.8,366.59999999999997M689,366.59999999999997L689,401.79999999999995M724.2,366.59999999999997L759.4000000000001,366.59999999999997M724.2,366.59999999999997L724.2,401.79999999999995M759.4000000000001,366.59999999999997L759.4000000000001,401.79999999999995M90.59999999999997,401.79999999999995L90.59999999999997,436.99999999999994M125.79999999999997,401.79999999999995L160.99999999999997,401.79999999999995M160.99999999999997,401.79999999999995L196.2,401.79999999999995M231.39999999999998,401.79999999999995L266.59999999999997,401.79999999999995M266.59999999999997,401.79999999999995L266.59999999999997,436.99999999999994M372.2,401.79999999999995L372.2,436.99999999999994M407.4,401.79999999999995L407.4,436.99999999999994M442.59999999999997,401.79999999999995L477.79999999999995,401.79999999999995M442.59999999999997,401.79999999999995L442.59999999999997,436.99999999999994M477.8,401.79999999999995L513,401.79999999999995M513,401.79999999999995L548.2,401.79999999999995M583.4000000000001,401.79999999999995L618.6000000000001,401.79999999999995M618.5999999999999,401.79999999999995L653.8,401.79999999999995M653.8,401.79999999999995L689,401.79999999999995M653.8,401.79999999999995L653.8,436.99999999999994M724.2,401.79999999999995L724.2,436.99999999999994M759.4000000000001,401.79999999999995L759.4000000000001,436.99999999999994M90.59999999999997,436.99999999999994L90.59999999999997,472.19999999999993M125.79999999999997,436.99999999999994L160.99999999999997,436.99999999999994M160.99999999999997,436.99999999999994L196.2,436.99999999999994M196.2,436.99999999999994L231.39999999999998,436.99999999999994M196.2,436.99999999999994L196.2,472.19999999999993M231.39999999999998,436.99999999999994L266.59999999999997,436.99999999999994M266.59999999999997,436.99999999999994L266.59999999999997,472.19999999999993M407.4,436.99999999999994L407.4,472.19999999999993M442.59999999999997,436.99999999999994L442.59999999999997,472.19999999999993M477.8,436.99999999999994L513,436.99999999999994M513,436.99999999999994L548.2,436.99999999999994M548.2,436.99999999999994L548.2,472.19999999999993M653.8,436.99999999999994L653.8,472.19999999999993M689,436.99999999999994L724.2,436.99999999999994M689,436.99999999999994L689,472.19999999999993M759.4000000000001,436.99999999999994L759.4000000000001,472.19999999999993M90.59999999999997,472.2L125.79999999999997,472.2M90.59999999999997,472.2L90.59999999999997,507.4M125.79999999999997,472.2L160.99999999999997,472.2M160.99999999999997,472.2L196.2,472.2M231.39999999999998,472.2L231.39999999999998,507.4M266.59999999999997,472.2L266.59999999999997,507.4M337,472.2L372.2,472.2M372.2,472.2L407.4,472.2M442.59999999999997,472.2L477.79999999999995,472.2M477.8,472.2L513,472.2M477.8,472.2L477.8,507.4M548.2,472.2L548.2,507.4M689,472.2L689,507.4M724.2,472.2L724.2,507.4M759.4000000000001,472.2L759.4000000000001,507.4M90.59999999999997,507.4L90.59999999999997,542.6M125.79999999999997,507.4L160.99999999999997,507.4M125.79999999999997,507.4L125.79999999999997,542.6M160.99999999999997,507.4L196.2,507.4M196.2,507.4L231.39999999999998,507.4M231.39999999999998,507.4L231.39999999999998,542.6M266.59999999999997,507.4L301.79999999999995,507.4M266.59999999999997,507.4L266.59999999999997,542.6M301.79999999999995,507.4L336.99999999999994,507.4M337,507.4L372.2,507.4M372.2,507.4L407.4,507.4M372.2,507.4L372.2,542.6M407.4,507.4L442.59999999999997,507.4M442.59999999999997,507.4L442.59999999999997,542.6M477.8,507.4L477.8,542.6M513,507.4L513,542.6M548.2,507.4L548.2,542.6M618.5999999999999,507.4L653.8,507.4M653.8,507.4L689,507.4M653.8,507.4L653.8,542.6M689,507.4L724.2,507.4M759.4000000000001,507.4L759.4000000000001,542.6M90.59999999999997,542.5999999999999L90.59999999999997,577.8M125.79999999999997,542.5999999999999L125.79999999999997,577.8M160.99999999999997,542.5999999999999L160.99999999999997,577.8M196.2,542.5999999999999L231.39999999999998,542.5999999999999M266.59999999999997,542.5999999999999L266.59999999999997,577.8M301.79999999999995,542.5999999999999L336.99999999999994,542.5999999999999M337,542.5999999999999L337,577.8M372.2,542.5999999999999L372.2,577.8M407.4,542.5999999999999L407.4,577.8M477.8,542.5999999999999L477.8,577.8M513,542.5999999999999L548.2,542.5999999999999M548.2,542.5999999999999L583.4000000000001,542.5999999999999M583.4000000000001,542.5999999999999L618.6000000000001,542.5999999999999M618.5999999999999,542.5999999999999L618.5999999999999,577.8M653.8,542.5999999999999L689,542.5999999999999M724.2,542.5999999999999L724.2,577.8M759.4000000000001,542.5999999999999L759.4000000000001,577.8M90.59999999999997,577.8L90.59999999999997,613M125.79999999999997,577.8L125.79999999999997,613M160.99999999999997,577.8L196.2,577.8M196.2,577.8L231.39999999999998,577.8M231.39999999999998,577.8L266.59999999999997,577.8M266.59999999999997,577.8L301.79999999999995,577.8M337,577.8L337,613M372.2,577.8L407.4,577.8M407.4,577.8L407.4,613M442.59999999999997,577.8L477.79999999999995,577.8M477.8,577.8L513,577.8M513,577.8L548.2,577.8M513,577.8L513,613M548.2,577.8L583.4000000000001,577.8M618.5999999999999,577.8L653.8,577.8M653.8,577.8L689,577.8M653.8,577.8L653.8,613M689,577.8L724.2,577.8M689,577.8L689,613M759.4000000000001,577.8L759.4000000000001,613M90.59999999999997,613L90.59999999999997,648.2M125.79999999999997,613L160.99999999999997,613M160.99999999999997,613L196.2,613M196.2,613L231.39999999999998,613M196.2,613L196.2,648.2M231.39999999999998,613L266.59999999999997,613M266.59999999999997,613L301.79999999999995,613M266.59999999999997,613L266.59999999999997,648.2M301.79999999999995,613L336.99999999999994,613M337,613L372.2,613M372.2,613L372.2,648.2M407.4,613L442.59999999999997,613M442.59999999999997,613L477.79999999999995,613M477.8,613L513,613M548.2,613L583.4000000000001,613M548.2,613L548.2,648.2M583.4000000000001,613L618.6000000000001,613M618.5999999999999,613L618.5999999999999,648.2M689,613L689,648.2M724.2,613L759.4000000000001,613M759.4000000000001,613L759.4000000000001,648.2M90.59999999999997,683.4000000000001L125.79999999999997,683.4000000000001M90.59999999999997,648.2L90.59999999999997,683.4000000000001M125.79999999999997,648.2L160.99999999999997,648.2M160.99999999999997,648.2L160.99999999999997,683.4000000000001M231.39999999999998,648.2L231.39999999999998,683.4000000000001M266.59999999999997,648.2L266.59999999999997,683.4000000000001M301.79999999999995,648.2L336.99999999999994,648.2M301.79999999999995,648.2L301.79999999999995,683.4000000000001M337,648.2L337,683.4000000000001M372.2,648.2L407.4,648.2M407.4,648.2L442.59999999999997,648.2M442.59999999999997,648.2L477.79999999999995,648.2M442.59999999999997,648.2L442.59999999999997,683.4000000000001M477.8,648.2L513,648.2M513,648.2L548.2,648.2M513,648.2L513,683.4000000000001M618.5999999999999,648.2L653.8,648.2M689,648.2L724.2,648.2M689,648.2L689,683.4000000000001M724.2,683.4000000000001L759.4000000000001,683.4000000000001M759.4000000000001,648.2L759.4000000000001,683.4000000000001M125.79999999999997,683.4000000000001L125.79999999999997,718.6000000000001M160.99999999999997,683.4000000000001L196.2,683.4000000000001M160.99999999999997,683.4000000000001L160.99999999999997,718.6000000000001M196.2,683.4000000000001L231.39999999999998,683.4000000000001M266.59999999999997,683.4000000000001L266.59999999999997,718.6000000000001M337,683.4000000000001L372.2,683.4000000000001M372.2,683.4000000000001L407.4,683.4000000000001M407.4,683.4000000000001L407.4,718.6000000000001M442.59999999999997,683.4000000000001L477.79999999999995,683.4000000000001M477.8,683.4000000000001L477.8,718.6000000000001M618.5999999999999,683.4000000000001L653.8,683.4000000000001M653.8,683.4000000000001L689,683.4000000000001M653.8,683.4000000000001L653.8,718.6000000000001M724.2,683.4000000000001L724.2,718.6000000000001M125.79999999999997,753.8L160.99999999999997,753.8M125.79999999999997,718.5999999999999L125.79999999999997,753.8M160.99999999999997,718.5999999999999L160.99999999999997,753.8M196.2,718.5999999999999L231.39999999999998,718.5999999999999M266.59999999999997,718.5999999999999L301.79999999999995,718.5999999999999M266.59999999999997,718.5999999999999L266.59999999999997,753.8M301.79999999999995,718.5999999999999L336.99999999999994,718.5999999999999M337,718.5999999999999L372.2,718.5999999999999M407.4,718.5999999999999L442.59999999999997,718.5999999999999M407.4,718.5999999999999L407.4,753.8M442.59999999999997,718.5999999999999L442.59999999999997,753.8M477.8,718.5999999999999L477.8,753.8M513,718.5999999999999L513,753.8M618.5999999999999,718.5999999999999L653.8,718.5999999999999M689,718.5999999999999L724.2,718.5999999999999M689,753.8L724.2,753.8M724.2,718.5999999999999L724.2,753.8M160.99999999999997,753.8L160.99999999999997,789M301.79999999999995,753.8L336.99999999999994,753.8M301.79999999999995,753.8L301.79999999999995,789M337,753.8L372.2,753.8M372.2,753.8L407.4,753.8M442.59999999999997,753.8L442.59999999999997,789M477.8,753.8L477.8,789M513,753.8L548.2,753.8M583.4000000000001,753.8L583.4000000000001,789M618.5999999999999,753.8L653.8,753.8M653.8,753.8L689,753.8M689,753.8L689,789M160.99999999999997,824.2L196.2,824.2M160.99999999999997,789L160.99999999999997,824.2M266.59999999999997,789L301.79999999999995,789M337,789L337,824.2M372.2,789L407.4,789M407.4,789L407.4,824.2M442.59999999999997,789L442.59999999999997,824.2M477.8,789L513,789M513,789L548.2,789M548.2,789L583.4000000000001,789M583.4000000000001,789L618.6000000000001,789M618.5999999999999,789L653.8,789M653.8,824.2L689,824.2M689,789L689,824.2M196.2,859.4000000000001L231.39999999999998,859.4000000000001M196.2,824.2L196.2,859.4000000000001M231.39999999999998,824.2L266.59999999999997,824.2M266.59999999999997,824.2L266.59999999999997,859.4000000000001M301.79999999999995,824.2L336.99999999999994,824.2M337,824.2L372.2,824.2M372.2,824.2L372.2,859.4000000000001M407.4,824.2L407.4,859.4000000000001M442.59999999999997,824.2L477.79999999999995,824.2M477.8,824.2L513,824.2M477.8,824.2L477.8,859.4000000000001M513,824.2L548.2,824.2M548.2,824.2L583.4000000000001,824.2M583.4000000000001,824.2L618.6000000000001,824.2M618.5999999999999,824.2L653.8,824.2M618.5999999999999,859.4000000000001L653.8,859.4000000000001M653.8,824.2L653.8,859.4000000000001M231.39999999999998,894.6000000000001L266.59999999999997,894.6000000000001M231.39999999999998,859.4000000000001L231.39999999999998,894.6000000000001M266.59999999999997,859.4000000000001L301.79999999999995,859.4000000000001M301.79999999999995,859.4000000000001L336.99999999999994,859.4000000000001M337,859.4000000000001L372.2,859.4000000000001M372.2,859.4000000000001L372.2,894.6000000000001M407.4,859.4000000000001L442.59999999999997,859.4000000000001M407.4,859.4000000000001L407.4,894.6000000000001M477.8,859.4000000000001L513,859.4000000000001M477.8,859.4000000000001L477.8,894.6000000000001M513,859.4000000000001L548.2,859.4000000000001M583.4000000000001,894.6000000000001L618.6000000000001,894.6000000000001M583.4000000000001,859.4000000000001L583.4000000000001,894.6000000000001M618.6000000000001,859.4000000000001L618.6000000000001,894.6000000000001M266.59999999999997,894.5999999999999L301.79999999999995,894.5999999999999M266.59999999999997,929.8L301.79999999999995,929.8M266.59999999999997,894.5999999999999L266.59999999999997,929.8M301.79999999999995,894.5999999999999L336.99999999999994,894.5999999999999M301.79999999999995,929.8L336.99999999999994,929.8M372.2,894.5999999999999L372.2,929.8M407.4,894.5999999999999L442.59999999999997,894.5999999999999M442.59999999999997,894.5999999999999L442.59999999999997,929.8M513,894.5999999999999L548.2,894.5999999999999M513,929.8L548.2,929.8M513,894.5999999999999L513,929.8M548.2,929.8L583.4000000000001,929.8M583.4000000000001,894.5999999999999L583.4000000000001,929.8M337,965L372.2,965M337,929.8L337,965M372.2,929.8L407.4,929.8M372.2,965L407.4,965M407.4,965L442.59999999999997,965M442.59999999999997,929.8L477.79999999999995,929.8M442.59999999999997,965L477.79999999999995,965M442.59999999999997,929.8L442.59999999999997,965M477.8,965L513,965M513,929.8L513,965" fill="none" stroke="#1f6f3d" stroke-width="3.5200000000000005" stroke-linecap="round"/><polyline points="74.84999999999997,130.92499999999995 88.59999999999997,137.79999999999995 74.84999999999997,144.67499999999995" fill="none" stroke="#1f6f3d" stroke-width="1.9" stroke-linecap="round" stroke-linejoin="round"/><path d="M27.42142857142853,133.87142857142854 L25.84999999999996,132.29999999999995 L21.135714285714247,132.29999999999995 L19.564285714285674,133.87142857142854 L19.564285714285674,137.01428571428568 L21.135714285714247,138.58571428571423 L25.84999999999996,138.58571428571423 L27.42142857142853,140.15714285714282 L27.42142857142853,141.72857142857137 L25.84999999999996,143.29999999999995 L21.135714285714247,143.29999999999995 L19.564285714285674,141.72857142857137 M30.17142857142853,132.29999999999995 L38.02857142857139,132.29999999999995 M34.09999999999996,132.29999999999995 L34.09999999999996,143.29999999999995 M40.77857142857139,143.29999999999995 L44.70714285714282,132.29999999999995 L48.63571428571424,143.29999999999995 M42.34999999999996,139.37142857142854 L47.064285714285674,139.37142857142854 M51.38571428571424,143.29999999999995 L51.38571428571424,132.29999999999995 L57.67142857142853,132.29999999999995 L59.2428571428571,133.87142857142854 L59.2428571428571,137.01428571428568 L57.67142857142853,138.58571428571423 L51.38571428571424,138.58571428571423 M55.314285714285674,138.58571428571423 L59.2428571428571,143.29999999999995 M61.992857142857105,132.29999999999995 L69.84999999999997,132.29999999999995 M65.92142857142854,132.29999999999995 L65.92142857142854,143.29999999999995" fill="none" stroke="#1f6f3d" stroke-width="1.9" stroke-linecap="round" stroke-linejoin="round"/><polyline points="775.1500000000001,764.5249999999999 761.4000000000001,771.3999999999999 775.1500000000001,778.2749999999999" fill="none" stroke="#1f6f3d" stroke-width="1.9" stroke-linecap="round" stroke-linejoin="round"/><path d="M788.007142857143,765.8999999999999 L780.1500000000001,765.8999999999999 L780.1500000000001,776.8999999999999 L788.007142857143,776.8999999999999 M780.1500000000001,771.3999999999999 L784.8642857142858,771.3999999999999 M790.6000000000001,776.8999999999999 L790.6000000000001,765.8999999999999 L798.457142857143,776.8999999999999 L798.457142857143,765.8999999999999 M801.0500000000002,765.8999999999999 L801.0500000000002,776.8999999999999 L805.7642857142858,776.8999999999999 L808.9071428571431,773.7571428571428 L808.9071428571431,769.042857142857 L805.7642857142858,765.8999999999999 L801.0500000000002,765.8999999999999" fill="none" stroke="#1f6f3d" stroke-width="1.9" stroke-linecap="round" stroke-linejoin="round"/><path d="M74.85714285714286,1005.4285714285714 L71.42857142857143,1002 L61.14285714285715,1002 L57.71428571428572,1005.4285714285714 L57.71428571428572,1022.5714285714286 L61.14285714285715,1026 L71.42857142857143,1026 L74.85714285714286,1022.5714285714286 M98,1002 L80.85714285714286,1002 L80.85714285714286,1026 L98,1026 M80.85714285714286,1014 L91.14285714285714,1014 M121.14285714285714,1005.4285714285714 L117.71428571428571,1002 L107.42857142857143,1002 L104,1005.4285714285714 L104,1022.5714285714286 L107.42857142857143,1026 L117.71428571428571,1026 L121.14285714285714,1022.5714285714286 M130.57142857142856,1002 L140.85714285714286,1002 M135.71428571428572,1002 L135.71428571428572,1026 M130.57142857142856,1026 L140.85714285714286,1026 M173.42857142857142,1026 L173.42857142857142,1002 L182,1015.7142857142857 L190.57142857142856,1002 L190.57142857142856,1026 M196.57142857142856,1002 L196.57142857142856,1022.5714285714286 L199.99999999999997,1026 L210.28571428571428,1026 L213.7142857142857,1022.5714285714286 L213.7142857142857,1002 M236.85714285714283,1005.4285714285714 L233.42857142857142,1002 L223.1428571428571,1002 L219.7142857142857,1005.4285714285714 L219.7142857142857,1012.2857142857143 L223.1428571428571,1015.7142857142857 L233.42857142857142,1015.7142857142857 L236.85714285714283,1019.1428571428571 L236.85714285714283,1022.5714285714286 L233.42857142857142,1026 L223.1428571428571,1026 L219.7142857142857,1022.5714285714286 M242.85714285714283,1002 L260,1002 M251.42857142857142,1002 L251.42857142857142,1026 M306.28571428571433,1002 L289.14285714285717,1002 L289.14285714285717,1026 M289.14285714285717,1014 L299.42857142857144,1014 M315.7142857142858,1002 L326.00000000000006,1002 M320.8571428571429,1002 L320.8571428571429,1026 M315.7142857142858,1026 L326.00000000000006,1026 M335.4285714285715,1026 L335.4285714285715,1002 L352.57142857142867,1026 L352.57142857142867,1002 M358.57142857142867,1002 L358.57142857142867,1026 L368.85714285714295,1026 L375.71428571428584,1019.1428571428571 L375.71428571428584,1008.8571428571429 L368.85714285714295,1002 L358.57142857142867,1002 M404.857142857143,1002 L422.00000000000017,1002 M413.42857142857156,1002 L413.42857142857156,1026 M428.00000000000017,1002 L428.00000000000017,1026 M445.14285714285734,1002 L445.14285714285734,1026 M428.00000000000017,1014 L445.14285714285734,1014 M468.2857142857145,1002 L451.14285714285734,1002 L451.14285714285734,1026 L468.2857142857145,1026 M451.14285714285734,1014 L461.4285714285716,1014 M514.5714285714288,1005.4285714285714 L511.1428571428574,1002 L500.8571428571431,1002 L497.4285714285717,1005.4285714285714 L497.4285714285717,1012.2857142857143 L500.8571428571431,1015.7142857142857 L511.1428571428574,1015.7142857142857 L514.5714285714288,1019.1428571428571 L514.5714285714288,1022.5714285714286 L511.1428571428574,1026 L500.8571428571431,1026 L497.4285714285717,1022.5714285714286 M520.5714285714288,1002 L520.5714285714288,1026 M537.7142857142859,1002 L537.7142857142859,1026 M520.5714285714288,1014 L537.7142857142859,1014 M547.1428571428573,1002 L557.4285714285716,1002 M552.2857142857144,1002 L552.2857142857144,1026 M547.1428571428573,1026 L557.4285714285716,1026 M566.857142857143,1026 L566.857142857143,1002 L584.0000000000001,1026 L584.0000000000001,1002 M630.2857142857143,1005.4285714285714 L626.8571428571429,1002 L616.5714285714287,1002 L613.1428571428572,1005.4285714285714 L613.1428571428572,1022.5714285714286 L616.5714285714287,1026 L626.8571428571429,1026 L630.2857142857143,1022.5714285714286 L630.2857142857143,1015.7142857142857 L621.7142857142858,1015.7142857142857 M636.2857142857143,1002 L636.2857142857143,1022.5714285714286 L639.7142857142858,1026 L650,1026 L653.4285714285714,1022.5714285714286 L653.4285714285714,1002 M659.4285714285714,1026 L668,1002 L676.5714285714286,1026 M662.8571428571429,1017.4285714285714 L673.1428571428571,1017.4285714285714 M682.5714285714286,1026 L682.5714285714286,1002 L696.2857142857142,1002 L699.7142857142857,1005.4285714285714 L699.7142857142857,1012.2857142857143 L696.2857142857142,1015.7142857142857 L682.5714285714286,1015.7142857142857 M691.1428571428571,1015.7142857142857 L699.7142857142857,1026 M705.7142857142857,1002 L705.7142857142857,1026 L716,1026 L722.8571428571428,1019.1428571428571 L722.8571428571428,1008.8571428571429 L716,1002 L705.7142857142857,1002 M755.4285714285713,1002 L765.7142857142856,1002 L769.142857142857,1005.4285714285714 L769.142857142857,1022.5714285714286 L765.7142857142856,1026 L755.4285714285713,1026 L751.9999999999999,1022.5714285714286 L751.9999999999999,1005.4285714285714 L755.4285714285713,1002 M775.142857142857,1026 L775.142857142857,1002 L792.2857142857141,1026 L792.2857142857141,1002" fill="none" stroke="#fff" stroke-width="6" stroke-linecap="round" stroke-linejoin="round"/><path d="M74.85714285714286,1005.4285714285714 L71.42857142857143,1002 L61.14285714285715,1002 L57.71428571428572,1005.4285714285714 L57.71428571428572,1022.5714285714286 L61.14285714285715,1026 L71.42857142857143,1026 L74.85714285714286,1022.5714285714286 M98,1002 L80.85714285714286,1002 L80.85714285714286,1026 L98,1026 M80.85714285714286,1014 L91.14285714285714,1014 M121.14285714285714,1005.4285714285714 L117.71428571428571,1002 L107.42857142857143,1002 L104,1005.4285714285714 L104,1022.5714285714286 L107.42857142857143,1026 L117.71428571428571,1026 L121.14285714285714,1022.5714285714286 M130.57142857142856,1002 L140.85714285714286,1002 M135.71428571428572,1002 L135.71428571428572,1026 M130.57142857142856,1026 L140.85714285714286,1026 M173.42857142857142,1026 L173.42857142857142,1002 L182,1015.7142857142857 L190.57142857142856,1002 L190.57142857142856,1026 M196.57142857142856,1002 L196.57142857142856,1022.5714285714286 L199.99999999999997,1026 L210.28571428571428,1026 L213.7142857142857,1022.5714285714286 L213.7142857142857,1002 M236.85714285714283,1005.4285714285714 L233.42857142857142,1002 L223.1428571428571,1002 L219.7142857142857,1005.4285714285714 L219.7142857142857,1012.2857142857143 L223.1428571428571,1015.7142857142857 L233.42857142857142,1015.7142857142857 L236.85714285714283,1019.1428571428571 L236.85714285714283,1022.5714285714286 L233.42857142857142,1026 L223.1428571428571,1026 L219.7142857142857,1022.5714285714286 M242.85714285714283,1002 L260,1002 M251.42857142857142,1002 L251.42857142857142,1026 M306.28571428571433,1002 L289.14285714285717,1002 L289.14285714285717,1026 M289.14285714285717,1014 L299.42857142857144,1014 M315.7142857142858,1002 L326.00000000000006,1002 M320.8571428571429,1002 L320.8571428571429,1026 M315.7142857142858,1026 L326.00000000000006,1026 M335.4285714285715,1026 L335.4285714285715,1002 L352.57142857142867,1026 L352.57142857142867,1002 M358.57142857142867,1002 L358.57142857142867,1026 L368.85714285714295,1026 L375.71428571428584,1019.1428571428571 L375.71428571428584,1008.8571428571429 L368.85714285714295,1002 L358.57142857142867,1002 M404.857142857143,1002 L422.00000000000017,1002 M413.42857142857156,1002 L413.42857142857156,1026 M428.00000000000017,1002 L428.00000000000017,1026 M445.14285714285734,1002 L445.14285714285734,1026 M428.00000000000017,1014 L445.14285714285734,1014 M468.2857142857145,1002 L451.14285714285734,1002 L451.14285714285734,1026 L468.2857142857145,1026 M451.14285714285734,1014 L461.4285714285716,1014 M514.5714285714288,1005.4285714285714 L511.1428571428574,1002 L500.8571428571431,1002 L497.4285714285717,1005.4285714285714 L497.4285714285717,1012.2857142857143 L500.8571428571431,1015.7142857142857 L511.1428571428574,1015.7142857142857 L514.5714285714288,1019.1428571428571 L514.5714285714288,1022.5714285714286 L511.1428571428574,1026 L500.8571428571431,1026 L497.4285714285717,1022.5714285714286 M520.5714285714288,1002 L520.5714285714288,1026 M537.7142857142859,1002 L537.7142857142859,1026 M520.5714285714288,1014 L537.7142857142859,1014 M547.1428571428573,1002 L557.4285714285716,1002 M552.2857142857144,1002 L552.2857142857144,1026 M547.1428571428573,1026 L557.4285714285716,1026 M566.857142857143,1026 L566.857142857143,1002 L584.0000000000001,1026 L584.0000000000001,1002 M630.2857142857143,1005.4285714285714 L626.8571428571429,1002 L616.5714285714287,1002 L613.1428571428572,1005.4285714285714 L613.1428571428572,1022.5714285714286 L616.5714285714287,1026 L626.8571428571429,1026 L630.2857142857143,1022.5714285714286 L630.2857142857143,1015.7142857142857 L621.7142857142858,1015.7142857142857 M636.2857142857143,1002 L636.2857142857143,1022.5714285714286 L639.7142857142858,1026 L650,1026 L653.4285714285714,1022.5714285714286 L653.4285714285714,1002 M659.4285714285714,1026 L668,1002 L676.5714285714286,1026 M662.8571428571429,1017.4285714285714 L673.1428571428571,1017.4285714285714 M682.5714285714286,1026 L682.5714285714286,1002 L696.2857142857142,1002 L699.7142857142857,1005.4285714285714 L699.7142857142857,1012.2857142857143 L696.2857142857142,1015.7142857142857 L682.5714285714286,1015.7142857142857 M691.1428571428571,1015.7142857142857 L699.7142857142857,1026 M705.7142857142857,1002 L705.7142857142857,1026 L716,1026 L722.8571428571428,1019.1428571428571 L722.8571428571428,1008.8571428571429 L716,1002 L705.7142857142857,1002 M755.4285714285713,1002 L765.7142857142856,1002 L769.142857142857,1005.4285714285714 L769.142857142857,1022.5714285714286 L765.7142857142856,1026 L755.4285714285713,1026 L751.9999999999999,1022.5714285714286 L751.9999999999999,1005.4285714285714 L755.4285714285713,1002 M775.142857142857,1026 L775.142857142857,1002 L792.2857142857141,1026 L792.2857142857141,1002" fill="none" stroke="#1f6f3d" stroke-width="3" stroke-linecap="round" stroke-linejoin="round"/><path d="M104,1037 L121.14285714285714,1037 M112.57142857142857,1037 L112.57142857142857,1061 M127.14285714285714,1037 L127.14285714285714,1061 M144.28571428571428,1037 L144.28571428571428,1061 M127.14285714285714,1049 L144.28571428571428,1049 M167.42857142857142,1037 L150.28571428571428,1037 L150.28571428571428,1061 L167.42857142857142,1061 M150.28571428571428,1049 L160.57142857142856,1049 M196.57142857142856,1037 L199.99999999999997,1061 L205.14285714285714,1047.2857142857142 L210.28571428571428,1061 L213.7142857142857,1037 M219.7142857142857,1061 L228.28571428571428,1037 L236.85714285714283,1061 M223.1428571428571,1052.4285714285713 L233.42857142857142,1052.4285714285713 M242.85714285714283,1037 L251.42857142857142,1049 L260,1037 M251.42857142857142,1049 L251.42857142857142,1061 M289.14285714285717,1037 L306.28571428571433,1037 M297.7142857142857,1037 L297.7142857142857,1061 M315.7142857142858,1037 L326.00000000000006,1037 L329.4285714285715,1040.4285714285713 L329.4285714285715,1057.5714285714287 L326.00000000000006,1061 L315.7142857142858,1061 L312.28571428571433,1057.5714285714287 L312.28571428571433,1040.4285714285713 L315.7142857142858,1037 M358.57142857142867,1037 L375.71428571428584,1037 M367.1428571428572,1037 L367.1428571428572,1061 M381.71428571428584,1037 L381.71428571428584,1061 M398.857142857143,1037 L398.857142857143,1061 M381.71428571428584,1049 L398.857142857143,1049 M422.00000000000017,1037 L404.857142857143,1037 L404.857142857143,1061 L422.00000000000017,1061 M404.857142857143,1049 L415.1428571428573,1049 M451.14285714285734,1061 L451.14285714285734,1037 L464.85714285714306,1037 L468.2857142857145,1040.4285714285713 L468.2857142857145,1047.2857142857142 L464.85714285714306,1050.7142857142858 L451.14285714285734,1050.7142857142858 M474.2857142857145,1061 L474.2857142857145,1037 L488.0000000000002,1037 L491.4285714285717,1040.4285714285713 L491.4285714285717,1047.2857142857142 L488.0000000000002,1050.7142857142858 L474.2857142857145,1050.7142857142858 M482.85714285714306,1050.7142857142858 L491.4285714285717,1061 M497.4285714285717,1061 L506.0000000000002,1037 L514.5714285714288,1061 M500.8571428571431,1052.4285714285713 L511.1428571428574,1052.4285714285713 M537.7142857142859,1040.4285714285713 L534.2857142857144,1037 L524.0000000000002,1037 L520.5714285714288,1040.4285714285713 L520.5714285714288,1057.5714285714287 L524.0000000000002,1061 L534.2857142857144,1061 L537.7142857142859,1057.5714285714287 M543.7142857142859,1037 L560.857142857143,1037 M552.2857142857144,1037 L552.2857142857144,1061 M570.2857142857144,1037 L580.5714285714287,1037 M575.4285714285716,1037 L575.4285714285716,1061 M570.2857142857144,1061 L580.5714285714287,1061 M607.1428571428572,1040.4285714285713 L603.7142857142858,1037 L593.4285714285716,1037 L590.0000000000001,1040.4285714285713 L590.0000000000001,1057.5714285714287 L593.4285714285716,1061 L603.7142857142858,1061 L607.1428571428572,1057.5714285714287 M630.2857142857143,1037 L613.1428571428572,1037 L613.1428571428572,1061 L630.2857142857143,1061 M613.1428571428572,1049 L623.4285714285716,1049 M659.4285714285714,1037 L662.8571428571429,1061 L668,1047.2857142857142 L673.1428571428571,1061 L676.5714285714286,1037 M686,1037 L696.2857142857142,1037 M691.1428571428571,1037 L691.1428571428571,1061 M686,1061 L696.2857142857142,1061 M705.7142857142857,1061 L705.7142857142857,1037 L722.8571428571428,1061 L722.8571428571428,1037 M737.4285714285713,1037 L737.4285714285713,1052.4285714285713 M737.4285714285713,1059.2857142857142 L737.4285714285713,1061" fill="none" stroke="#fff" stroke-width="6" stroke-linecap="round" stroke-linejoin="round"/><path d="M104,1037 L121.14285714285714,1037 M112.57142857142857,1037 L112.57142857142857,1061 M127.14285714285714,1037 L127.14285714285714,1061 M144.28571428571428,1037 L144.28571428571428,1061 M127.14285714285714,1049 L144.28571428571428,1049 M167.42857142857142,1037 L150.28571428571428,1037 L150.28571428571428,1061 L167.42857142857142,1061 M150.28571428571428,1049 L160.57142857142856,1049 M196.57142857142856,1037 L199.99999999999997,1061 L205.14285714285714,1047.2857142857142 L210.28571428571428,1061 L213.7142857142857,1037 M219.7142857142857,1061 L228.28571428571428,1037 L236.85714285714283,1061 M223.1428571428571,1052.4285714285713 L233.42857142857142,1052.4285714285713 M242.85714285714283,1037 L251.42857142857142,1049 L260,1037 M251.42857142857142,1049 L251.42857142857142,1061 M289.14285714285717,1037 L306.28571428571433,1037 M297.7142857142857,1037 L297.7142857142857,1061 M315.7142857142858,1037 L326.00000000000006,1037 L329.4285714285715,1040.4285714285713 L329.4285714285715,1057.5714285714287 L326.00000000000006,1061 L315.7142857142858,1061 L312.28571428571433,1057.5714285714287 L312.28571428571433,1040.4285714285713 L315.7142857142858,1037 M358.57142857142867,1037 L375.71428571428584,1037 M367.1428571428572,1037 L367.1428571428572,1061 M381.71428571428584,1037 L381.71428571428584,1061 M398.857142857143,1037 L398.857142857143,1061 M381.71428571428584,1049 L398.857142857143,1049 M422.00000000000017,1037 L404.857142857143,1037 L404.857142857143,1061 L422.00000000000017,1061 M404.857142857143,1049 L415.1428571428573,1049 M451.14285714285734,1061 L451.14285714285734,1037 L464.85714285714306,1037 L468.2857142857145,1040.4285714285713 L468.2857142857145,1047.2857142857142 L464.85714285714306,1050.7142857142858 L451.14285714285734,1050.7142857142858 M474.2857142857145,1061 L474.2857142857145,1037 L488.0000000000002,1037 L491.4285714285717,1040.4285714285713 L491.4285714285717,1047.2857142857142 L488.0000000000002,1050.7142857142858 L474.2857142857145,1050.7142857142858 M482.85714285714306,1050.7142857142858 L491.4285714285717,1061 M497.4285714285717,1061 L506.0000000000002,1037 L514.5714285714288,1061 M500.8571428571431,1052.4285714285713 L511.1428571428574,1052.4285714285713 M537.7142857142859,1040.4285714285713 L534.2857142857144,1037 L524.0000000000002,1037 L520.5714285714288,1040.4285714285713 L520.5714285714288,1057.5714285714287 L524.0000000000002,1061 L534.2857142857144,1061 L537.7142857142859,1057.5714285714287 M543.7142857142859,1037 L560.857142857143,1037 M552.2857142857144,1037 L552.2857142857144,1061 M570.2857142857144,1037 L580.5714285714287,1037 M575.4285714285716,1037 L575.4285714285716,1061 M570.2857142857144,1061 L580.5714285714287,1061 M607.1428571428572,1040.4285714285713 L603.7142857142858,1037 L593.4285714285716,1037 L590.0000000000001,1040.4285714285713 L590.0000000000001,1057.5714285714287 L593.4285714285716,1061 L603.7142857142858,1061 L607.1428571428572,1057.5714285714287 M630.2857142857143,1037 L613.1428571428572,1037 L613.1428571428572,1061 L630.2857142857143,1061 M613.1428571428572,1049 L623.4285714285716,1049 M659.4285714285714,1037 L662.8571428571429,1061 L668,1047.2857142857142 L673.1428571428571,1061 L676.5714285714286,1037 M686,1037 L696.2857142857142,1037 M691.1428571428571,1037 L691.1428571428571,1061 M686,1061 L696.2857142857142,1061 M705.7142857142857,1061 L705.7142857142857,1037 L722.8571428571428,1061 L722.8571428571428,1037 M737.4285714285713,1037 L737.4285714285713,1052.4285714285713 M737.4285714285713,1059.2857142857142 L737.4285714285713,1061" fill="none" stroke="#1f6f3d" stroke-width="3" stroke-linecap="round" stroke-linejoin="round"/></svg>